<?xml version="1.0" encoding="UTF-8" standalone="no"?>
<!DOCTYPE svg PUBLIC "-//W3C//DTD SVG 1.1//EN"
 "http://www.w3.org/Graphics/SVG/1.1/DTD/svg11.dtd">
<!-- Generated by graphviz version 2.43.0 (0)
 -->
<!-- Title: Contributor_Setup Pages: 1 -->
<svg width="1099pt" height="3000pt"
 viewBox="0.00 0.00 263.87 720.00" xmlns="http://www.w3.org/2000/svg" xmlns:xlink="http://www.w3.org/1999/xlink">
<g id="graph0" class="graph" transform="scale(3.93 3.93) rotate(0) translate(4 760)">
<title>Contributor_Setup</title>
<polygon fill="white" stroke="transparent" points="-4,4 -4,-760 276,-760 276,4 -4,4"/>
<text text-anchor="middle" x="136" y="-737.6" font-family="Arial" font-size="18.00">Phase 1: New Contributor Setup</text>
<!-- github_account -->
<g id="node1" class="node">
<title>github_account</title>
<path fill="#f0f4f8" stroke="black" d="M207.5,-728C207.5,-728 64.5,-728 64.5,-728 58.5,-728 52.5,-722 52.5,-716 52.5,-716 52.5,-696 52.5,-696 52.5,-690 58.5,-684 64.5,-684 64.5,-684 207.5,-684 207.5,-684 213.5,-684 219.5,-690 219.5,-696 219.5,-696 219.5,-716 219.5,-716 219.5,-722 213.5,-728 207.5,-728"/>
<text text-anchor="middle" x="136" y="-709.8" font-family="Arial" font-size="14.00">Create GitHub account</text>
<text text-anchor="middle" x="136" y="-694.8" font-family="Arial" font-size="14.00">(if needed)</text>
</g>
<!-- install_git -->
<g id="node2" class="node">
<title>install_git</title>
<path fill="#e6e0f3" stroke="black" d="M167,-630C167,-630 105,-630 105,-630 99,-630 93,-624 93,-618 93,-618 93,-599 93,-599 93,-593 99,-587 105,-587 105,-587 167,-587 167,-587 173,-587 179,-593 179,-599 179,-599 179,-618 179,-618 179,-624 173,-630 167,-630"/>
<text text-anchor="middle" x="136" y="-604.8" font-family="Arial" font-size="14.00">Install Git</text>
</g>
<!-- github_account&#45;&gt;install_git -->
<g id="edge1" class="edge">
<title>github_account&#45;&gt;install_git</title>
<path fill="none" stroke="black" stroke-width="1.5" d="M136,-683.88C136,-683.88 136,-640.2 136,-640.2"/>
<polygon fill="black" stroke="black" stroke-width="1.5" points="139.5,-640.2 136,-630.2 132.5,-640.2 139.5,-640.2"/>
</g>
<!-- configure_git -->
<g id="node3" class="node">
<title>configure_git</title>
<path fill="#e6e0f3" stroke="black" d="M200,-533C200,-533 72,-533 72,-533 66,-533 60,-527 60,-521 60,-521 60,-501 60,-501 60,-495 66,-489 72,-489 72,-489 200,-489 200,-489 206,-489 212,-495 212,-501 212,-501 212,-521 212,-521 212,-527 206,-533 200,-533"/>
<text text-anchor="middle" x="136" y="-514.8" font-family="Arial" font-size="14.00">Configure Git with</text>
<text text-anchor="middle" x="136" y="-499.8" font-family="Arial" font-size="14.00">username and email</text>
</g>
<!-- install_git&#45;&gt;configure_git -->
<g id="edge2" class="edge">
<title>install_git&#45;&gt;configure_git</title>
<path fill="none" stroke="black" stroke-width="1.5" d="M136,-586.86C136,-586.86 136,-543.25 136,-543.25"/>
<polygon fill="black" stroke="black" stroke-width="1.5" points="139.5,-543.25 136,-533.25 132.5,-543.25 139.5,-543.25"/>
</g>
<!-- github_auth -->
<g id="node4" class="node">
<title>github_auth</title>
<path fill="#f0f4f8" stroke="black" d="M225,-435C225,-435 47,-435 47,-435 41,-435 35,-429 35,-423 35,-423 35,-403 35,-403 35,-397 41,-391 47,-391 47,-391 225,-391 225,-391 231,-391 237,-397 237,-403 237,-403 237,-423 237,-423 237,-429 231,-435 225,-435"/>
<text text-anchor="middle" x="136" y="-416.8" font-family="Arial" font-size="14.00">Set up GitHub authentication</text>
<text text-anchor="middle" x="136" y="-401.8" font-family="Arial" font-size="14.00">(SSH keys or token)</text>
</g>
<!-- configure_git&#45;&gt;github_auth -->
<g id="edge3" class="edge">
<title>configure_git&#45;&gt;github_auth</title>
<path fill="none" stroke="black" stroke-width="1.5" d="M136,-488.76C136,-488.76 136,-445.15 136,-445.15"/>
<polygon fill="black" stroke="black" stroke-width="1.5" points="139.5,-445.15 136,-435.15 132.5,-445.15 139.5,-445.15"/>
</g>
<!-- install_r -->
<g id="node5" class="node">
<title>install_r</title>
<path fill="#e0f3e0" stroke="black" d="M201.5,-337C201.5,-337 70.5,-337 70.5,-337 64.5,-337 58.5,-331 58.5,-325 58.5,-325 58.5,-306 58.5,-306 58.5,-300 64.5,-294 70.5,-294 70.5,-294 201.5,-294 201.5,-294 207.5,-294 213.5,-300 213.5,-306 213.5,-306 213.5,-325 213.5,-325 213.5,-331 207.5,-337 201.5,-337"/>
<text text-anchor="middle" x="136" y="-311.8" font-family="Arial" font-size="14.00">Install R and RStudio</text>
</g>
<!-- github_auth&#45;&gt;install_r -->
<g id="edge4" class="edge">
<title>github_auth&#45;&gt;install_r</title>
<path fill="none" stroke="black" stroke-width="1.5" d="M136,-390.88C136,-390.88 136,-347.2 136,-347.2"/>
<polygon fill="black" stroke="black" stroke-width="1.5" points="139.5,-347.2 136,-337.2 132.5,-347.2 139.5,-347.2"/>
</g>
<!-- fork_repo -->
<g id="node6" class="node">
<title>fork_repo</title>
<path fill="#f0f4f8" stroke="black" d="M211.5,-240C211.5,-240 60.5,-240 60.5,-240 54.5,-240 48.5,-234 48.5,-228 48.5,-228 48.5,-208 48.5,-208 48.5,-202 54.5,-196 60.5,-196 60.5,-196 211.5,-196 211.5,-196 217.5,-196 223.5,-202 223.5,-208 223.5,-208 223.5,-228 223.5,-228 223.5,-234 217.5,-240 211.5,-240"/>
<text text-anchor="middle" x="136" y="-221.8" font-family="Arial" font-size="14.00">Fork the main repository</text>
<text text-anchor="middle" x="136" y="-206.8" font-family="Arial" font-size="14.00">to your GitHub account</text>
</g>
<!-- install_r&#45;&gt;fork_repo -->
<g id="edge5" class="edge">
<title>install_r&#45;&gt;fork_repo</title>
<path fill="none" stroke="black" stroke-width="1.5" d="M136,-293.86C136,-293.86 136,-250.25 136,-250.25"/>
<polygon fill="black" stroke="black" stroke-width="1.5" points="139.5,-250.25 136,-240.25 132.5,-250.25 139.5,-250.25"/>
</g>
<!-- clone_fork -->
<g id="node7" class="node">
<title>clone_fork</title>
<path fill="#e6e0f3" stroke="black" d="M187.5,-142C187.5,-142 84.5,-142 84.5,-142 78.5,-142 72.5,-136 72.5,-130 72.5,-130 72.5,-110 72.5,-110 72.5,-104 78.5,-98 84.5,-98 84.5,-98 187.5,-98 187.5,-98 193.5,-98 199.5,-104 199.5,-110 199.5,-110 199.5,-130 199.5,-130 199.5,-136 193.5,-142 187.5,-142"/>
<text text-anchor="middle" x="136" y="-123.8" font-family="Arial" font-size="14.00">Clone your fork</text>
<text text-anchor="middle" x="136" y="-108.8" font-family="Arial" font-size="14.00">to local machine</text>
</g>
<!-- fork_repo&#45;&gt;clone_fork -->
<g id="edge6" class="edge">
<title>fork_repo&#45;&gt;clone_fork</title>
<path fill="none" stroke="black" stroke-width="1.5" d="M136,-195.76C136,-195.76 136,-152.15 136,-152.15"/>
<polygon fill="black" stroke="black" stroke-width="1.5" points="139.5,-152.15 136,-142.15 132.5,-152.15 139.5,-152.15"/>
</g>
<!-- add_upstream -->
<g id="node8" class="node">
<title>add_upstream</title>
<path fill="#e6e0f3" stroke="black" d="M191.5,-44C191.5,-44 80.5,-44 80.5,-44 74.5,-44 68.5,-38 68.5,-32 68.5,-32 68.5,-12 68.5,-12 68.5,-6 74.5,0 80.5,0 80.5,0 191.5,0 191.5,0 197.5,0 203.5,-6 203.5,-12 203.5,-12 203.5,-32 203.5,-32 203.5,-38 197.5,-44 191.5,-44"/>
<text text-anchor="middle" x="136" y="-25.8" font-family="Arial" font-size="14.00">Add main repo as</text>
<text text-anchor="middle" x="136" y="-10.8" font-family="Arial" font-size="14.00">upstream remote</text>
</g>
<!-- clone_fork&#45;&gt;add_upstream -->
<g id="edge7" class="edge">
<title>clone_fork&#45;&gt;add_upstream</title>
<path fill="none" stroke="black" stroke-width="1.5" d="M136,-97.76C136,-97.76 136,-54.15 136,-54.15"/>
<polygon fill="black" stroke="black" stroke-width="1.5" points="139.5,-54.15 136,-44.15 132.5,-54.15 139.5,-54.15"/>
</g>
</g>
</svg>
