<?xml version="1.0" encoding="UTF-8" standalone="no"?>
<!DOCTYPE svg PUBLIC "-//W3C//DTD SVG 1.1//EN"
 "http://www.w3.org/Graphics/SVG/1.1/DTD/svg11.dtd">
<!-- Generated by graphviz version 2.43.0 (0)
 -->
<!-- Title: Development_Workflow Pages: 1 -->
<svg width="1142pt" height="2858pt"
 viewBox="0.00 0.00 274.00 686.00" xmlns="http://www.w3.org/2000/svg" xmlns:xlink="http://www.w3.org/1999/xlink">
<g id="graph0" class="graph" transform="scale(4.17 4.17) rotate(0) translate(4 682)">
<title>Development_Workflow</title>
<polygon fill="white" stroke="transparent" points="-4,4 -4,-682 270,-682 270,4 -4,4"/>
<text text-anchor="middle" x="133" y="-659.6" font-family="Arial" font-size="18.00">Phase 3: Development Process</text>
<!-- renv_restore -->
<g id="node1" class="node">
<title>renv_restore</title>
<path fill="#e0f3e0" stroke="black" d="M216.5,-650C216.5,-650 49.5,-650 49.5,-650 43.5,-650 37.5,-644 37.5,-638 37.5,-638 37.5,-618 37.5,-618 37.5,-612 43.5,-606 49.5,-606 49.5,-606 216.5,-606 216.5,-606 222.5,-606 228.5,-612 228.5,-618 228.5,-618 228.5,-638 228.5,-638 228.5,-644 222.5,-650 216.5,-650"/>
<text text-anchor="middle" x="133" y="-631.8" font-family="Arial" font-size="14.00">renv::restore()</text>
<text text-anchor="middle" x="133" y="-616.8" font-family="Arial" font-size="14.00">Set up project environment</text>
</g>
<!-- tar_make_initial -->
<g id="node2" class="node">
<title>tar_make_initial</title>
<path fill="#e0f3e0" stroke="black" d="M245,-551C245,-551 21,-551 21,-551 15,-551 9,-545 9,-539 9,-539 9,-519 9,-519 9,-513 15,-507 21,-507 21,-507 245,-507 245,-507 251,-507 257,-513 257,-519 257,-519 257,-539 257,-539 257,-545 251,-551 245,-551"/>
<text text-anchor="middle" x="133" y="-532.8" font-family="Arial" font-size="14.00">tar_make()</text>
<text text-anchor="middle" x="133" y="-517.8" font-family="Arial" font-size="14.00">Verify pipeline works before changes</text>
</g>
<!-- renv_restore&#45;&gt;tar_make_initial -->
<g id="edge1" class="edge">
<title>renv_restore&#45;&gt;tar_make_initial</title>
<path fill="none" stroke="black" stroke-width="1.5" d="M133,-605.54C133,-605.54 133,-561.03 133,-561.03"/>
<polygon fill="black" stroke="black" stroke-width="1.5" points="136.5,-561.03 133,-551.03 129.5,-561.03 136.5,-561.03"/>
</g>
<!-- test_dir_initial -->
<g id="node3" class="node">
<title>test_dir_initial</title>
<path fill="#f3e0e0" stroke="black" d="M222.5,-452C222.5,-452 43.5,-452 43.5,-452 37.5,-452 31.5,-446 31.5,-440 31.5,-440 31.5,-420 31.5,-420 31.5,-414 37.5,-408 43.5,-408 43.5,-408 222.5,-408 222.5,-408 228.5,-408 234.5,-414 234.5,-420 234.5,-420 234.5,-440 234.5,-440 234.5,-446 228.5,-452 222.5,-452"/>
<text text-anchor="middle" x="133" y="-433.8" font-family="Arial" font-size="14.00">test_dir()</text>
<text text-anchor="middle" x="133" y="-418.8" font-family="Arial" font-size="14.00">Confirm all tests pass initially</text>
</g>
<!-- tar_make_initial&#45;&gt;test_dir_initial -->
<g id="edge2" class="edge">
<title>tar_make_initial&#45;&gt;test_dir_initial</title>
<path fill="none" stroke="black" stroke-width="1.5" d="M133,-506.54C133,-506.54 133,-462.03 133,-462.03"/>
<polygon fill="black" stroke="black" stroke-width="1.5" points="136.5,-462.03 133,-452.03 129.5,-462.03 136.5,-462.03"/>
</g>
<!-- write_tests -->
<g id="node4" class="node">
<title>write_tests</title>
<path fill="#f3e0e0" stroke="black" d="M209,-353C209,-353 57,-353 57,-353 51,-353 45,-347 45,-341 45,-341 45,-321 45,-321 45,-315 51,-309 57,-309 57,-309 209,-309 209,-309 215,-309 221,-315 221,-321 221,-321 221,-341 221,-341 221,-347 215,-353 209,-353"/>
<text text-anchor="middle" x="133" y="-334.8" font-family="Arial" font-size="14.00">Write new unit tests for</text>
<text text-anchor="middle" x="133" y="-319.8" font-family="Arial" font-size="14.00">the required functionality</text>
</g>
<!-- test_dir_initial&#45;&gt;write_tests -->
<g id="edge3" class="edge">
<title>test_dir_initial&#45;&gt;write_tests</title>
<path fill="none" stroke="black" stroke-width="1.5" d="M133,-407.54C133,-407.54 133,-363.03 133,-363.03"/>
<polygon fill="black" stroke="black" stroke-width="1.5" points="136.5,-363.03 133,-353.03 129.5,-363.03 136.5,-363.03"/>
</g>
<!-- run_tests -->
<g id="node5" class="node">
<title>run_tests</title>
<path fill="#f3e0e0" stroke="black" d="M199.5,-254C199.5,-254 66.5,-254 66.5,-254 60.5,-254 54.5,-248 54.5,-242 54.5,-242 54.5,-222 54.5,-222 54.5,-216 60.5,-210 66.5,-210 66.5,-210 199.5,-210 199.5,-210 205.5,-210 211.5,-216 211.5,-222 211.5,-222 211.5,-242 211.5,-242 211.5,-248 205.5,-254 199.5,-254"/>
<text text-anchor="middle" x="133" y="-235.8" font-family="Arial" font-size="14.00">Run tests to confirm</text>
<text text-anchor="middle" x="133" y="-220.8" font-family="Arial" font-size="14.00">they fail appropriately</text>
</g>
<!-- write_tests&#45;&gt;run_tests -->
<g id="edge4" class="edge">
<title>write_tests&#45;&gt;run_tests</title>
<path fill="none" stroke="black" stroke-width="1.5" d="M133,-308.54C133,-308.54 133,-264.03 133,-264.03"/>
<polygon fill="black" stroke="black" stroke-width="1.5" points="136.5,-264.03 133,-254.03 129.5,-264.03 136.5,-264.03"/>
</g>
<!-- implement -->
<g id="node6" class="node">
<title>implement</title>
<path fill="#e0f3e0" stroke="black" d="M211.5,-155C211.5,-155 54.5,-155 54.5,-155 48.5,-155 42.5,-149 42.5,-143 42.5,-143 42.5,-123 42.5,-123 42.5,-117 48.5,-111 54.5,-111 54.5,-111 211.5,-111 211.5,-111 217.5,-111 223.5,-117 223.5,-123 223.5,-123 223.5,-143 223.5,-143 223.5,-149 217.5,-155 211.5,-155"/>
<text text-anchor="middle" x="133" y="-136.8" font-family="Arial" font-size="14.00">Implement code changes</text>
<text text-anchor="middle" x="133" y="-121.8" font-family="Arial" font-size="14.00">to address the issue</text>
</g>
<!-- run_tests&#45;&gt;implement -->
<g id="edge5" class="edge">
<title>run_tests&#45;&gt;implement</title>
<path fill="none" stroke="black" stroke-width="1.5" d="M133,-209.54C133,-209.54 133,-165.03 133,-165.03"/>
<polygon fill="black" stroke="black" stroke-width="1.5" points="136.5,-165.03 133,-155.03 129.5,-165.03 136.5,-165.03"/>
</g>
<!-- test_driven -->
<g id="node7" class="node">
<title>test_driven</title>
<path fill="#f3e0e0" stroke="black" d="M203.5,-44C203.5,-44 62.5,-44 62.5,-44 56.5,-44 50.5,-38 50.5,-32 50.5,-32 50.5,-12 50.5,-12 50.5,-6 56.5,0 62.5,0 62.5,0 203.5,0 203.5,0 209.5,0 215.5,-6 215.5,-12 215.5,-12 215.5,-32 215.5,-32 215.5,-38 209.5,-44 203.5,-44"/>
<text text-anchor="middle" x="133" y="-25.8" font-family="Arial" font-size="14.00">Iterate between coding</text>
<text text-anchor="middle" x="133" y="-10.8" font-family="Arial" font-size="14.00">and testing</text>
</g>
<!-- implement&#45;&gt;test_driven -->
<g id="edge6" class="edge">
<title>implement&#45;&gt;test_driven</title>
<path fill="none" stroke="black" stroke-width="1.5" d="M105.5,-110.8C105.5,-110.8 105.5,-54.16 105.5,-54.16"/>
<polygon fill="black" stroke="black" stroke-width="1.5" points="109,-54.16 105.5,-44.16 102,-54.16 109,-54.16"/>
</g>
<!-- test_driven&#45;&gt;implement -->
<g id="edge7" class="edge">
<title>test_driven&#45;&gt;implement</title>
<path fill="none" stroke="black" stroke-width="1.5" d="M160.5,-44.2C160.5,-44.2 160.5,-100.84 160.5,-100.84"/>
<polygon fill="black" stroke="black" stroke-width="1.5" points="157,-100.84 160.5,-110.84 164,-100.84 157,-100.84"/>
<text text-anchor="middle" x="211" y="-74.4" font-family="Arial" font-size="12.00">Refine</text>
</g>
</g>
</svg>
