<?xml version="1.0" encoding="UTF-8" standalone="no"?>
<!DOCTYPE svg PUBLIC "-//W3C//DTD SVG 1.1//EN"
 "http://www.w3.org/Graphics/SVG/1.1/DTD/svg11.dtd">
<!-- Generated by graphviz version 2.43.0 (0)
 -->
<!-- Title: Finalization_Workflow Pages: 1 -->
<svg width="1018pt" height="3000pt"
 viewBox="0.00 0.00 244.27 720.00" xmlns="http://www.w3.org/2000/svg" xmlns:xlink="http://www.w3.org/1999/xlink">
<g id="graph0" class="graph" transform="scale(2.54 2.54) rotate(0) translate(4 1175)">
<title>Finalization_Workflow</title>
<polygon fill="white" stroke="transparent" points="-4,4 -4,-1175 396,-1175 396,4 -4,4"/>
<text text-anchor="middle" x="196" y="-1152.6" font-family="Arial" font-size="18.00">Phase 4: Finalization and Pull Request Process</text>
<!-- styling -->
<g id="node1" class="node">
<title>styling</title>
<path fill="#f8f4e0" stroke="black" d="M234.5,-1143C234.5,-1143 79.5,-1143 79.5,-1143 73.5,-1143 67.5,-1137 67.5,-1131 67.5,-1131 67.5,-1111 67.5,-1111 67.5,-1105 73.5,-1099 79.5,-1099 79.5,-1099 234.5,-1099 234.5,-1099 240.5,-1099 246.5,-1105 246.5,-1111 246.5,-1111 246.5,-1131 246.5,-1131 246.5,-1137 240.5,-1143 234.5,-1143"/>
<text text-anchor="middle" x="157" y="-1124.8" font-family="Arial" font-size="14.00">style_dir()</text>
<text text-anchor="middle" x="157" y="-1109.8" font-family="Arial" font-size="14.00">Format code consistently</text>
</g>
<!-- linting -->
<g id="node2" class="node">
<title>linting</title>
<path fill="#f8f4e0" stroke="black" d="M231.5,-1044C231.5,-1044 82.5,-1044 82.5,-1044 76.5,-1044 70.5,-1038 70.5,-1032 70.5,-1032 70.5,-1012 70.5,-1012 70.5,-1006 76.5,-1000 82.5,-1000 82.5,-1000 231.5,-1000 231.5,-1000 237.5,-1000 243.5,-1006 243.5,-1012 243.5,-1012 243.5,-1032 243.5,-1032 243.5,-1038 237.5,-1044 231.5,-1044"/>
<text text-anchor="middle" x="157" y="-1025.8" font-family="Arial" font-size="14.00">lint_dir()</text>
<text text-anchor="middle" x="157" y="-1010.8" font-family="Arial" font-size="14.00">Identify any code issues</text>
</g>
<!-- styling&#45;&gt;linting -->
<g id="edge1" class="edge">
<title>styling&#45;&gt;linting</title>
<path fill="none" stroke="black" stroke-width="1.5" d="M157,-1098.54C157,-1098.54 157,-1054.03 157,-1054.03"/>
<polygon fill="black" stroke="black" stroke-width="1.5" points="160.5,-1054.03 157,-1044.03 153.5,-1054.03 160.5,-1054.03"/>
</g>
<!-- fix_issues -->
<g id="node3" class="node">
<title>fix_issues</title>
<path fill="#f8f4e0" stroke="black" d="M231,-945C231,-945 83,-945 83,-945 77,-945 71,-939 71,-933 71,-933 71,-913 71,-913 71,-907 77,-901 83,-901 83,-901 231,-901 231,-901 237,-901 243,-907 243,-913 243,-913 243,-933 243,-933 243,-939 237,-945 231,-945"/>
<text text-anchor="middle" x="157" y="-926.8" font-family="Arial" font-size="14.00">Fix any issues identified</text>
<text text-anchor="middle" x="157" y="-911.8" font-family="Arial" font-size="14.00">by linter</text>
</g>
<!-- linting&#45;&gt;fix_issues -->
<g id="edge2" class="edge">
<title>linting&#45;&gt;fix_issues</title>
<path fill="none" stroke="black" stroke-width="1.5" d="M157,-999.54C157,-999.54 157,-955.03 157,-955.03"/>
<polygon fill="black" stroke="black" stroke-width="1.5" points="160.5,-955.03 157,-945.03 153.5,-955.03 160.5,-955.03"/>
</g>
<!-- test_final -->
<g id="node4" class="node">
<title>test_final</title>
<path fill="#f3e0e0" stroke="black" d="M217,-846C217,-846 97,-846 97,-846 91,-846 85,-840 85,-834 85,-834 85,-814 85,-814 85,-808 91,-802 97,-802 97,-802 217,-802 217,-802 223,-802 229,-808 229,-814 229,-814 229,-834 229,-834 229,-840 223,-846 217,-846"/>
<text text-anchor="middle" x="157" y="-827.8" font-family="Arial" font-size="14.00">test_dir()</text>
<text text-anchor="middle" x="157" y="-812.8" font-family="Arial" font-size="14.00">Verify all tests pass</text>
</g>
<!-- fix_issues&#45;&gt;test_final -->
<g id="edge3" class="edge">
<title>fix_issues&#45;&gt;test_final</title>
<path fill="none" stroke="black" stroke-width="1.5" d="M157,-900.54C157,-900.54 157,-856.03 157,-856.03"/>
<polygon fill="black" stroke="black" stroke-width="1.5" points="160.5,-856.03 157,-846.03 153.5,-856.03 160.5,-856.03"/>
</g>
<!-- tar_make_final -->
<g id="node5" class="node">
<title>tar_make_final</title>
<path fill="#e0f3e0" stroke="black" d="M262,-747C262,-747 52,-747 52,-747 46,-747 40,-741 40,-735 40,-735 40,-715 40,-715 40,-709 46,-703 52,-703 52,-703 262,-703 262,-703 268,-703 274,-709 274,-715 274,-715 274,-735 274,-735 274,-741 268,-747 262,-747"/>
<text text-anchor="middle" x="157" y="-728.8" font-family="Arial" font-size="14.00">tar_make()</text>
<text text-anchor="middle" x="157" y="-713.8" font-family="Arial" font-size="14.00">Verify pipeline works with changes</text>
</g>
<!-- test_final&#45;&gt;tar_make_final -->
<g id="edge4" class="edge">
<title>test_final&#45;&gt;tar_make_final</title>
<path fill="none" stroke="black" stroke-width="1.5" d="M157,-801.54C157,-801.54 157,-757.03 157,-757.03"/>
<polygon fill="black" stroke="black" stroke-width="1.5" points="160.5,-757.03 157,-747.03 153.5,-757.03 160.5,-757.03"/>
</g>
<!-- document -->
<g id="node6" class="node">
<title>document</title>
<path fill="#e0f3e0" stroke="black" d="M227.5,-648C227.5,-648 86.5,-648 86.5,-648 80.5,-648 74.5,-642 74.5,-636 74.5,-636 74.5,-616 74.5,-616 74.5,-610 80.5,-604 86.5,-604 86.5,-604 227.5,-604 227.5,-604 233.5,-604 239.5,-610 239.5,-616 239.5,-616 239.5,-636 239.5,-636 239.5,-642 233.5,-648 227.5,-648"/>
<text text-anchor="middle" x="157" y="-629.8" font-family="Arial" font-size="14.00">Update documentation</text>
<text text-anchor="middle" x="157" y="-614.8" font-family="Arial" font-size="14.00">if necessary</text>
</g>
<!-- tar_make_final&#45;&gt;document -->
<g id="edge5" class="edge">
<title>tar_make_final&#45;&gt;document</title>
<path fill="none" stroke="black" stroke-width="1.5" d="M157,-702.54C157,-702.54 157,-658.03 157,-658.03"/>
<polygon fill="black" stroke="black" stroke-width="1.5" points="160.5,-658.03 157,-648.03 153.5,-658.03 160.5,-658.03"/>
</g>
<!-- commit -->
<g id="node7" class="node">
<title>commit</title>
<path fill="#e6e0f3" stroke="black" d="M224.5,-549C224.5,-549 89.5,-549 89.5,-549 83.5,-549 77.5,-543 77.5,-537 77.5,-537 77.5,-517 77.5,-517 77.5,-511 83.5,-505 89.5,-505 89.5,-505 224.5,-505 224.5,-505 230.5,-505 236.5,-511 236.5,-517 236.5,-517 236.5,-537 236.5,-537 236.5,-543 230.5,-549 224.5,-549"/>
<text text-anchor="middle" x="157" y="-530.8" font-family="Arial" font-size="14.00">Commit changes with</text>
<text text-anchor="middle" x="157" y="-515.8" font-family="Arial" font-size="14.00">meaningful message</text>
</g>
<!-- document&#45;&gt;commit -->
<g id="edge6" class="edge">
<title>document&#45;&gt;commit</title>
<path fill="none" stroke="black" stroke-width="1.5" d="M157,-603.54C157,-603.54 157,-559.03 157,-559.03"/>
<polygon fill="black" stroke="black" stroke-width="1.5" points="160.5,-559.03 157,-549.03 153.5,-559.03 160.5,-559.03"/>
</g>
<!-- push -->
<g id="node8" class="node">
<title>push</title>
<path fill="#e6e0f3" stroke="black" d="M218,-450C218,-450 96,-450 96,-450 90,-450 84,-444 84,-438 84,-438 84,-419 84,-419 84,-413 90,-407 96,-407 96,-407 218,-407 218,-407 224,-407 230,-413 230,-419 230,-419 230,-438 230,-438 230,-444 224,-450 218,-450"/>
<text text-anchor="middle" x="157" y="-424.8" font-family="Arial" font-size="14.00">Push branch to fork</text>
</g>
<!-- commit&#45;&gt;push -->
<g id="edge7" class="edge">
<title>commit&#45;&gt;push</title>
<path fill="none" stroke="black" stroke-width="1.5" d="M157,-504.65C157,-504.65 157,-460.09 157,-460.09"/>
<polygon fill="black" stroke="black" stroke-width="1.5" points="160.5,-460.09 157,-450.09 153.5,-460.09 160.5,-460.09"/>
</g>
<!-- pr -->
<g id="node9" class="node">
<title>pr</title>
<path fill="#f0f4f8" stroke="black" d="M222,-352C222,-352 92,-352 92,-352 86,-352 80,-346 80,-340 80,-340 80,-320 80,-320 80,-314 86,-308 92,-308 92,-308 222,-308 222,-308 228,-308 234,-314 234,-320 234,-320 234,-340 234,-340 234,-346 228,-352 222,-352"/>
<text text-anchor="middle" x="157" y="-333.8" font-family="Arial" font-size="14.00">Open Pull Request</text>
<text text-anchor="middle" x="157" y="-318.8" font-family="Arial" font-size="14.00">referencing the issue</text>
</g>
<!-- push&#45;&gt;pr -->
<g id="edge8" class="edge">
<title>push&#45;&gt;pr</title>
<path fill="none" stroke="black" stroke-width="1.5" d="M157,-406.64C157,-406.64 157,-362.14 157,-362.14"/>
<polygon fill="black" stroke="black" stroke-width="1.5" points="160.5,-362.14 157,-352.14 153.5,-362.14 160.5,-362.14"/>
</g>
<!-- review -->
<g id="node10" class="node">
<title>review</title>
<path fill="#f0f4f8" stroke="black" d="M225.5,-253C225.5,-253 88.5,-253 88.5,-253 82.5,-253 76.5,-247 76.5,-241 76.5,-241 76.5,-222 76.5,-222 76.5,-216 82.5,-210 88.5,-210 88.5,-210 225.5,-210 225.5,-210 231.5,-210 237.5,-216 237.5,-222 237.5,-222 237.5,-241 237.5,-241 237.5,-247 231.5,-253 225.5,-253"/>
<text text-anchor="middle" x="157" y="-227.8" font-family="Arial" font-size="14.00">Code Review Process</text>
</g>
<!-- pr&#45;&gt;review -->
<g id="edge9" class="edge">
<title>pr&#45;&gt;review</title>
<path fill="none" stroke="black" stroke-width="1.5" d="M157,-307.65C157,-307.65 157,-263.09 157,-263.09"/>
<polygon fill="black" stroke="black" stroke-width="1.5" points="160.5,-263.09 157,-253.09 153.5,-263.09 160.5,-263.09"/>
</g>
<!-- revisions -->
<g id="node11" class="node">
<title>revisions</title>
<path fill="#e0f3e0" stroke="black" d="M141.5,-143C141.5,-143 46.5,-143 46.5,-143 40.5,-143 34.5,-137 34.5,-131 34.5,-131 34.5,-111 34.5,-111 34.5,-105 40.5,-99 46.5,-99 46.5,-99 141.5,-99 141.5,-99 147.5,-99 153.5,-105 153.5,-111 153.5,-111 153.5,-131 153.5,-131 153.5,-137 147.5,-143 141.5,-143"/>
<text text-anchor="middle" x="94" y="-124.8" font-family="Arial" font-size="14.00">Make revisions</text>
<text text-anchor="middle" x="94" y="-109.8" font-family="Arial" font-size="14.00">if requested</text>
</g>
<!-- review&#45;&gt;revisions -->
<g id="edge10" class="edge">
<title>review&#45;&gt;revisions</title>
<path fill="none" stroke="black" stroke-width="1.5" d="M115,-209.93C115,-209.93 115,-153.27 115,-153.27"/>
<polygon fill="black" stroke="black" stroke-width="1.5" points="118.5,-153.27 115,-143.27 111.5,-153.27 118.5,-153.27"/>
<text text-anchor="middle" x="167" y="-173.4" font-family="Arial" font-size="12.00">Changes requested</text>
</g>
<!-- merge -->
<g id="node12" class="node">
<title>merge</title>
<path fill="#f0f4f8" stroke="black" d="M362,-142.5C362,-142.5 202,-142.5 202,-142.5 196,-142.5 190,-136.5 190,-130.5 190,-130.5 190,-111.5 190,-111.5 190,-105.5 196,-99.5 202,-99.5 202,-99.5 362,-99.5 362,-99.5 368,-99.5 374,-105.5 374,-111.5 374,-111.5 374,-130.5 374,-130.5 374,-136.5 368,-142.5 362,-142.5"/>
<text text-anchor="middle" x="282" y="-117.3" font-family="Arial" font-size="14.00">PR approved and merged</text>
</g>
<!-- review&#45;&gt;merge -->
<g id="edge12" class="edge">
<title>review&#45;&gt;merge</title>
<path fill="none" stroke="black" stroke-width="1.5" d="M213.75,-209.93C213.75,-209.93 213.75,-152.51 213.75,-152.51"/>
<polygon fill="black" stroke="black" stroke-width="1.5" points="217.25,-152.51 213.75,-142.51 210.25,-152.51 217.25,-152.51"/>
<text text-anchor="middle" x="297" y="-173.4" font-family="Arial" font-size="12.00">Approved</text>
</g>
<!-- revisions&#45;&gt;styling -->
<g id="edge11" class="edge">
<title>revisions&#45;&gt;styling</title>
<path fill="none" stroke="black" stroke-width="1.5" stroke-dasharray="5,2" d="M34.47,-121C24.07,-121 16.5,-121 16.5,-121 16.5,-121 16.5,-1121 16.5,-1121 16.5,-1121 57.22,-1121 57.22,-1121"/>
<polygon fill="black" stroke="black" stroke-width="1.5" points="57.22,-1124.5 67.22,-1121 57.22,-1117.5 57.22,-1124.5"/>
</g>
<!-- close -->
<g id="node13" class="node">
<title>close</title>
<path fill="#f0f4f8" stroke="black" d="M363.5,-44C363.5,-44 200.5,-44 200.5,-44 194.5,-44 188.5,-38 188.5,-32 188.5,-32 188.5,-12 188.5,-12 188.5,-6 194.5,0 200.5,0 200.5,0 363.5,0 363.5,0 369.5,0 375.5,-6 375.5,-12 375.5,-12 375.5,-32 375.5,-32 375.5,-38 369.5,-44 363.5,-44"/>
<text text-anchor="middle" x="282" y="-25.8" font-family="Arial" font-size="14.00">Issue closed automatically</text>
<text text-anchor="middle" x="282" y="-10.8" font-family="Arial" font-size="14.00">by PR merge</text>
</g>
<!-- merge&#45;&gt;close -->
<g id="edge13" class="edge">
<title>merge&#45;&gt;close</title>
<path fill="none" stroke="black" stroke-width="1.5" d="M282,-99.03C282,-99.03 282,-54.25 282,-54.25"/>
<polygon fill="black" stroke="black" stroke-width="1.5" points="285.5,-54.25 282,-44.25 278.5,-54.25 285.5,-54.25"/>
</g>
</g>
</svg>
