<?xml version="1.0" encoding="UTF-8" standalone="no"?>
<!DOCTYPE svg PUBLIC "-//W3C//DTD SVG 1.1//EN"
 "http://www.w3.org/Graphics/SVG/1.1/DTD/svg11.dtd">
<!-- Generated by graphviz version 2.43.0 (0)
 -->
<!-- Title: Issue_Workflow Pages: 1 -->
<svg width="1512pt" height="2904pt"
 viewBox="0.00 0.00 363.00 697.00" xmlns="http://www.w3.org/2000/svg" xmlns:xlink="http://www.w3.org/1999/xlink">
<g id="graph0" class="graph" transform="scale(4.17 4.17) rotate(0) translate(4 693)">
<title>Issue_Workflow</title>
<polygon fill="white" stroke="transparent" points="-4,4 -4,-693 359,-693 359,4 -4,4"/>
<text text-anchor="middle" x="177.5" y="-670.6" font-family="Arial" font-size="18.00">Phase 2: Issue Creation and Branch Setup</text>
<!-- identify -->
<g id="node1" class="node">
<title>identify</title>
<path fill="#e0eef3" stroke="black" d="M245,-661C245,-661 110,-661 110,-661 104,-661 98,-655 98,-649 98,-649 98,-629 98,-629 98,-623 104,-617 110,-617 110,-617 245,-617 245,-617 251,-617 257,-623 257,-629 257,-629 257,-649 257,-649 257,-655 251,-661 245,-661"/>
<text text-anchor="middle" x="177.5" y="-642.8" font-family="Arial" font-size="14.00">RA identifies task</text>
<text text-anchor="middle" x="177.5" y="-627.8" font-family="Arial" font-size="14.00">that needs to be done</text>
</g>
<!-- create_issue -->
<g id="node2" class="node">
<title>create_issue</title>
<path fill="#f0f4f8" stroke="black" d="M241.5,-563C241.5,-563 113.5,-563 113.5,-563 107.5,-563 101.5,-557 101.5,-551 101.5,-551 101.5,-532 101.5,-532 101.5,-526 107.5,-520 113.5,-520 113.5,-520 241.5,-520 241.5,-520 247.5,-520 253.5,-526 253.5,-532 253.5,-532 253.5,-551 253.5,-551 253.5,-557 247.5,-563 241.5,-563"/>
<text text-anchor="middle" x="177.5" y="-537.8" font-family="Arial" font-size="14.00">Create GitHub Issue</text>
</g>
<!-- identify&#45;&gt;create_issue -->
<g id="edge1" class="edge">
<title>identify&#45;&gt;create_issue</title>
<path fill="none" stroke="black" stroke-width="1.5" d="M177.5,-616.88C177.5,-616.88 177.5,-573.2 177.5,-573.2"/>
<polygon fill="black" stroke="black" stroke-width="1.5" points="181,-573.2 177.5,-563.2 174,-573.2 181,-573.2"/>
</g>
<!-- add_description -->
<g id="node3" class="node">
<title>add_description</title>
<path fill="#f0f4f8" stroke="black" d="M252,-466C252,-466 103,-466 103,-466 97,-466 91,-460 91,-454 91,-454 91,-434 91,-434 91,-428 97,-422 103,-422 103,-422 252,-422 252,-422 258,-422 264,-428 264,-434 264,-434 264,-454 264,-454 264,-460 258,-466 252,-466"/>
<text text-anchor="middle" x="177.5" y="-447.8" font-family="Arial" font-size="14.00">Add detailed description</text>
<text text-anchor="middle" x="177.5" y="-432.8" font-family="Arial" font-size="14.00">of the required changes</text>
</g>
<!-- create_issue&#45;&gt;add_description -->
<g id="edge2" class="edge">
<title>create_issue&#45;&gt;add_description</title>
<path fill="none" stroke="black" stroke-width="1.5" d="M177.5,-519.86C177.5,-519.86 177.5,-476.25 177.5,-476.25"/>
<polygon fill="black" stroke="black" stroke-width="1.5" points="181,-476.25 177.5,-466.25 174,-476.25 181,-476.25"/>
</g>
<!-- add_labels -->
<g id="node4" class="node">
<title>add_labels</title>
<path fill="#f0f4f8" stroke="black" d="M279,-368C279,-368 76,-368 76,-368 70,-368 64,-362 64,-356 64,-356 64,-321 64,-321 64,-315 70,-309 76,-309 76,-309 279,-309 279,-309 285,-309 291,-315 291,-321 291,-321 291,-356 291,-356 291,-362 285,-368 279,-368"/>
<text text-anchor="middle" x="177.5" y="-349.8" font-family="Arial" font-size="14.00">Add specific labels</text>
<text text-anchor="middle" x="177.5" y="-334.8" font-family="Arial" font-size="14.00">• Survey ID</text>
<text text-anchor="middle" x="177.5" y="-319.8" font-family="Arial" font-size="14.00">• Activity type (missing data, etc.)</text>
</g>
<!-- add_description&#45;&gt;add_labels -->
<g id="edge3" class="edge">
<title>add_description&#45;&gt;add_labels</title>
<path fill="none" stroke="black" stroke-width="1.5" d="M177.5,-421.88C177.5,-421.88 177.5,-378.19 177.5,-378.19"/>
<polygon fill="black" stroke="black" stroke-width="1.5" points="181,-378.19 177.5,-368.19 174,-378.19 181,-378.19"/>
</g>
<!-- assign_issue -->
<g id="node5" class="node">
<title>assign_issue</title>
<path fill="#f0f4f8" stroke="black" d="M259,-255C259,-255 96,-255 96,-255 90,-255 84,-249 84,-243 84,-243 84,-223 84,-223 84,-217 90,-211 96,-211 96,-211 259,-211 259,-211 265,-211 271,-217 271,-223 271,-223 271,-243 271,-243 271,-249 265,-255 259,-255"/>
<text text-anchor="middle" x="177.5" y="-236.8" font-family="Arial" font-size="14.00">Assign issue to contributor</text>
<text text-anchor="middle" x="177.5" y="-221.8" font-family="Arial" font-size="14.00">(or self&#45;assign)</text>
</g>
<!-- add_labels&#45;&gt;assign_issue -->
<g id="edge4" class="edge">
<title>add_labels&#45;&gt;assign_issue</title>
<path fill="none" stroke="black" stroke-width="1.5" d="M177.5,-308.83C177.5,-308.83 177.5,-265.09 177.5,-265.09"/>
<polygon fill="black" stroke="black" stroke-width="1.5" points="181,-265.09 177.5,-255.09 174,-265.09 181,-265.09"/>
</g>
<!-- sync_fork -->
<g id="node6" class="node">
<title>sync_fork</title>
<path fill="#e6e0f3" stroke="black" d="M252,-157C252,-157 103,-157 103,-157 97,-157 91,-151 91,-145 91,-145 91,-125 91,-125 91,-119 97,-113 103,-113 103,-113 252,-113 252,-113 258,-113 264,-119 264,-125 264,-125 264,-145 264,-145 264,-151 258,-157 252,-157"/>
<text text-anchor="middle" x="177.5" y="-138.8" font-family="Arial" font-size="14.00">Sync fork with upstream</text>
<text text-anchor="middle" x="177.5" y="-123.8" font-family="Arial" font-size="14.00">(git fetch upstream)</text>
</g>
<!-- assign_issue&#45;&gt;sync_fork -->
<g id="edge5" class="edge">
<title>assign_issue&#45;&gt;sync_fork</title>
<path fill="none" stroke="black" stroke-width="1.5" d="M177.5,-210.76C177.5,-210.76 177.5,-167.15 177.5,-167.15"/>
<polygon fill="black" stroke="black" stroke-width="1.5" points="181,-167.15 177.5,-157.15 174,-167.15 181,-167.15"/>
</g>
<!-- branch -->
<g id="node7" class="node">
<title>branch</title>
<path fill="#e6e0f3" stroke="black" d="M259.5,-59C259.5,-59 95.5,-59 95.5,-59 89.5,-59 83.5,-53 83.5,-47 83.5,-47 83.5,-12 83.5,-12 83.5,-6 89.5,0 95.5,0 95.5,0 259.5,0 259.5,0 265.5,0 271.5,-6 271.5,-12 271.5,-12 271.5,-47 271.5,-47 271.5,-53 265.5,-59 259.5,-59"/>
<text text-anchor="middle" x="177.5" y="-40.8" font-family="Arial" font-size="14.00">Create feature branch</text>
<text text-anchor="middle" x="177.5" y="-25.8" font-family="Arial" font-size="14.00">named after issue number</text>
<text text-anchor="middle" x="177.5" y="-10.8" font-family="Arial" font-size="14.00">(git checkout &#45;b issue&#45;123)</text>
</g>
<!-- sync_fork&#45;&gt;branch -->
<g id="edge6" class="edge">
<title>sync_fork&#45;&gt;branch</title>
<path fill="none" stroke="black" stroke-width="1.5" d="M177.5,-112.88C177.5,-112.88 177.5,-69.19 177.5,-69.19"/>
<polygon fill="black" stroke="black" stroke-width="1.5" points="181,-69.19 177.5,-59.19 174,-69.19 181,-69.19"/>
</g>
</g>
</svg>
