<?xml version="1.0" encoding="UTF-8" standalone="no"?>
<!DOCTYPE svg PUBLIC "-//W3C//DTD SVG 1.1//EN"
 "http://www.w3.org/Graphics/SVG/1.1/DTD/svg11.dtd">
<!-- Generated by graphviz version 2.43.0 (0)
 -->
<!-- Title: R_Development_Workflow Pages: 1 -->
<svg width="1354pt" height="3300pt"
 viewBox="0.00 0.00 324.92 792.00" xmlns="http://www.w3.org/2000/svg" xmlns:xlink="http://www.w3.org/1999/xlink">
<g id="graph0" class="graph" transform="scale(2.49 2.49) rotate(0) translate(4 1322)">
<title>R_Development_Workflow</title>
<polygon fill="white" stroke="transparent" points="-4,4 -4,-1322 540,-1322 540,4 -4,4"/>
<text text-anchor="middle" x="268" y="-1298" font-family="Arial" font-size="20.00">R Development Workflow with Git, GitHub and R Packages</text>
<!-- issue -->
<g id="node1" class="node">
<title>issue</title>
<path fill="#f0f4f8" stroke="black" d="M303.75,-1288C303.75,-1288 181.75,-1288 181.75,-1288 175.75,-1288 169.75,-1282 169.75,-1276 169.75,-1276 169.75,-1257 169.75,-1257 169.75,-1251 175.75,-1245 181.75,-1245 181.75,-1245 303.75,-1245 303.75,-1245 309.75,-1245 315.75,-1251 315.75,-1257 315.75,-1257 315.75,-1276 315.75,-1276 315.75,-1282 309.75,-1288 303.75,-1288"/>
<text text-anchor="middle" x="242.75" y="-1262.8" font-family="Arial" font-size="14.00">Create GitHub Issue</text>
</g>
<!-- assign -->
<g id="node2" class="node">
<title>assign</title>
<path fill="#f0f4f8" stroke="black" d="M280.25,-1190C280.25,-1190 205.25,-1190 205.25,-1190 199.25,-1190 193.25,-1184 193.25,-1178 193.25,-1178 193.25,-1159 193.25,-1159 193.25,-1153 199.25,-1147 205.25,-1147 205.25,-1147 280.25,-1147 280.25,-1147 286.25,-1147 292.25,-1153 292.25,-1159 292.25,-1159 292.25,-1178 292.25,-1178 292.25,-1184 286.25,-1190 280.25,-1190"/>
<text text-anchor="middle" x="242.75" y="-1164.8" font-family="Arial" font-size="14.00">Assign Issue</text>
</g>
<!-- issue&#45;&gt;assign -->
<g id="edge1" class="edge">
<title>issue&#45;&gt;assign</title>
<path fill="none" stroke="black" stroke-width="1.5" d="M242.75,-1244.67C242.75,-1231.71 242.75,-1214.82 242.75,-1200.33"/>
<polygon fill="black" stroke="black" stroke-width="1.5" points="246.25,-1200.29 242.75,-1190.29 239.25,-1200.29 246.25,-1200.29"/>
</g>
<!-- fork -->
<g id="node3" class="node">
<title>fork</title>
<path fill="#f0f4f8" stroke="black" d="M251.75,-1080C251.75,-1080 45.75,-1080 45.75,-1080 39.75,-1080 33.75,-1074 33.75,-1068 33.75,-1068 33.75,-1049 33.75,-1049 33.75,-1043 39.75,-1037 45.75,-1037 45.75,-1037 251.75,-1037 251.75,-1037 257.75,-1037 263.75,-1043 263.75,-1049 263.75,-1049 263.75,-1068 263.75,-1068 263.75,-1074 257.75,-1080 251.75,-1080"/>
<text text-anchor="middle" x="148.75" y="-1054.8" font-family="Arial" font-size="14.00">Fork Repository (new contributors)</text>
</g>
<!-- assign&#45;&gt;fork -->
<g id="edge2" class="edge">
<title>assign&#45;&gt;fork</title>
<path fill="none" stroke="black" stroke-width="1.5" d="M224.85,-1146.93C210.31,-1130.22 189.64,-1106.48 173.51,-1087.95"/>
<polygon fill="black" stroke="black" stroke-width="1.5" points="176.11,-1085.6 166.91,-1080.36 170.83,-1090.2 176.11,-1085.6"/>
<text text-anchor="middle" x="233.75" y="-1110.4" font-family="Arial" font-size="12.00"> &#160;(if needed)</text>
</g>
<!-- branch -->
<g id="node4" class="node">
<title>branch</title>
<path fill="#e6e0f3" stroke="black" d="M309.75,-982C309.75,-982 173.75,-982 173.75,-982 167.75,-982 161.75,-976 161.75,-970 161.75,-970 161.75,-951 161.75,-951 161.75,-945 167.75,-939 173.75,-939 173.75,-939 309.75,-939 309.75,-939 315.75,-939 321.75,-945 321.75,-951 321.75,-951 321.75,-970 321.75,-970 321.75,-976 315.75,-982 309.75,-982"/>
<text text-anchor="middle" x="241.75" y="-956.8" font-family="Arial" font-size="14.00">Create Feature Branch</text>
</g>
<!-- assign&#45;&gt;branch -->
<g id="edge3" class="edge">
<title>assign&#45;&gt;branch</title>
<path fill="none" stroke="black" stroke-width="1.5" d="M259.44,-1146.83C265.11,-1138.86 270.96,-1129.41 274.75,-1120 288.59,-1085.66 290.68,-1072.93 281.75,-1037 277.74,-1020.86 269.57,-1004.37 261.65,-990.94"/>
<polygon fill="black" stroke="black" stroke-width="1.5" points="264.48,-988.86 256.26,-982.17 258.52,-992.53 264.48,-988.86"/>
<text text-anchor="middle" x="348.75" y="-1055.4" font-family="Arial" font-size="12.00"> &#160;(if already contributor)</text>
</g>
<!-- fork&#45;&gt;branch -->
<g id="edge4" class="edge">
<title>fork&#45;&gt;branch</title>
<path fill="none" stroke="black" stroke-width="1.5" d="M168.93,-1036.67C182.21,-1022.96 199.77,-1004.83 214.32,-989.82"/>
<polygon fill="black" stroke="black" stroke-width="1.5" points="217.17,-991.91 221.61,-982.29 212.14,-987.04 217.17,-991.91"/>
</g>
<!-- renv -->
<g id="node9" class="node">
<title>renv</title>
<path fill="#e0f3e0" stroke="black" d="M322.25,-884C322.25,-884 161.25,-884 161.25,-884 155.25,-884 149.25,-878 149.25,-872 149.25,-872 149.25,-852 149.25,-852 149.25,-846 155.25,-840 161.25,-840 161.25,-840 322.25,-840 322.25,-840 328.25,-840 334.25,-846 334.25,-852 334.25,-852 334.25,-872 334.25,-872 334.25,-878 328.25,-884 322.25,-884"/>
<text text-anchor="middle" x="241.75" y="-865.8" font-family="Arial" font-size="14.00">Set up project environment</text>
<text text-anchor="middle" x="241.75" y="-850.8" font-family="Arial" font-size="14.00">with renv</text>
</g>
<!-- branch&#45;&gt;renv -->
<g id="edge5" class="edge">
<title>branch&#45;&gt;renv</title>
<path fill="none" stroke="black" stroke-width="1.5" d="M241.75,-938.56C241.75,-925.63 241.75,-908.78 241.75,-894.29"/>
<polygon fill="black" stroke="black" stroke-width="1.5" points="245.25,-894.23 241.75,-884.23 238.25,-894.23 245.25,-894.23"/>
</g>
<!-- develop -->
<g id="node5" class="node">
<title>develop</title>
<path fill="#e0f3e0" stroke="black" d="M298.75,-785C298.75,-785 184.75,-785 184.75,-785 178.75,-785 172.75,-779 172.75,-773 172.75,-773 172.75,-754 172.75,-754 172.75,-748 178.75,-742 184.75,-742 184.75,-742 298.75,-742 298.75,-742 304.75,-742 310.75,-748 310.75,-754 310.75,-754 310.75,-773 310.75,-773 310.75,-779 304.75,-785 298.75,-785"/>
<text text-anchor="middle" x="241.75" y="-759.8" font-family="Arial" font-size="14.00">Development Work</text>
</g>
<!-- targets -->
<g id="node10" class="node">
<title>targets</title>
<path fill="#e0f3e0" stroke="black" d="M290.75,-617C290.75,-617 150.75,-617 150.75,-617 144.75,-617 138.75,-611 138.75,-605 138.75,-605 138.75,-585 138.75,-585 138.75,-579 144.75,-573 150.75,-573 150.75,-573 290.75,-573 290.75,-573 296.75,-573 302.75,-579 302.75,-585 302.75,-585 302.75,-605 302.75,-605 302.75,-611 296.75,-617 290.75,-617"/>
<text text-anchor="middle" x="220.75" y="-598.8" font-family="Arial" font-size="14.00">Define analysis pipeline</text>
<text text-anchor="middle" x="220.75" y="-583.8" font-family="Arial" font-size="14.00">with targets</text>
</g>
<!-- develop&#45;&gt;targets -->
<g id="edge8" class="edge">
<title>develop&#45;&gt;targets</title>
<path fill="none" stroke="black" stroke-width="1.5" d="M239.13,-741.75C235.5,-712.96 228.91,-660.67 224.68,-627.17"/>
<polygon fill="black" stroke="black" stroke-width="1.5" points="228.12,-626.5 223.4,-617.01 221.18,-627.37 228.12,-626.5"/>
</g>
<!-- r_code -->
<g id="node11" class="node">
<title>r_code</title>
<path fill="#e0f3e0" stroke="black" d="M378.25,-687C378.25,-687 301.25,-687 301.25,-687 295.25,-687 289.25,-681 289.25,-675 289.25,-675 289.25,-656 289.25,-656 289.25,-650 295.25,-644 301.25,-644 301.25,-644 378.25,-644 378.25,-644 384.25,-644 390.25,-650 390.25,-656 390.25,-656 390.25,-675 390.25,-675 390.25,-681 384.25,-687 378.25,-687"/>
<text text-anchor="middle" x="339.75" y="-661.8" font-family="Arial" font-size="14.00">Write R code</text>
</g>
<!-- develop&#45;&gt;r_code -->
<g id="edge7" class="edge">
<title>develop&#45;&gt;r_code</title>
<path fill="none" stroke="black" stroke-width="1.5" d="M263.01,-741.67C277.14,-727.83 295.85,-709.5 311.26,-694.41"/>
<polygon fill="black" stroke="black" stroke-width="1.5" points="313.83,-696.79 318.53,-687.29 308.93,-691.79 313.83,-696.79"/>
</g>
<!-- pr -->
<g id="node6" class="node">
<title>pr</title>
<path fill="#f0f4f8" stroke="black" d="M312.25,-251C312.25,-251 193.25,-251 193.25,-251 187.25,-251 181.25,-245 181.25,-239 181.25,-239 181.25,-220 181.25,-220 181.25,-214 187.25,-208 193.25,-208 193.25,-208 312.25,-208 312.25,-208 318.25,-208 324.25,-214 324.25,-220 324.25,-220 324.25,-239 324.25,-239 324.25,-245 318.25,-251 312.25,-251"/>
<text text-anchor="middle" x="252.75" y="-225.8" font-family="Arial" font-size="14.00">Create Pull Request</text>
</g>
<!-- review -->
<g id="node7" class="node">
<title>review</title>
<path fill="#f0f4f8" stroke="black" d="M292.25,-153C292.25,-153 213.25,-153 213.25,-153 207.25,-153 201.25,-147 201.25,-141 201.25,-141 201.25,-122 201.25,-122 201.25,-116 207.25,-110 213.25,-110 213.25,-110 292.25,-110 292.25,-110 298.25,-110 304.25,-116 304.25,-122 304.25,-122 304.25,-141 304.25,-141 304.25,-147 298.25,-153 292.25,-153"/>
<text text-anchor="middle" x="252.75" y="-127.8" font-family="Arial" font-size="14.00">Code Review</text>
</g>
<!-- pr&#45;&gt;review -->
<g id="edge14" class="edge">
<title>pr&#45;&gt;review</title>
<path fill="none" stroke="black" stroke-width="1.5" d="M252.75,-207.67C252.75,-194.71 252.75,-177.82 252.75,-163.33"/>
<polygon fill="black" stroke="black" stroke-width="1.5" points="256.25,-163.29 252.75,-153.29 249.25,-163.29 256.25,-163.29"/>
</g>
<!-- merge -->
<g id="node8" class="node">
<title>merge</title>
<path fill="#f0f4f8" stroke="black" d="M295.75,-43C295.75,-43 209.75,-43 209.75,-43 203.75,-43 197.75,-37 197.75,-31 197.75,-31 197.75,-12 197.75,-12 197.75,-6 203.75,0 209.75,0 209.75,0 295.75,0 295.75,0 301.75,0 307.75,-6 307.75,-12 307.75,-12 307.75,-31 307.75,-31 307.75,-37 301.75,-43 295.75,-43"/>
<text text-anchor="middle" x="252.75" y="-17.8" font-family="Arial" font-size="14.00">Merge to Main</text>
</g>
<!-- review&#45;&gt;merge -->
<g id="edge16" class="edge">
<title>review&#45;&gt;merge</title>
<path fill="none" stroke="black" stroke-width="1.5" d="M252.75,-109.93C252.75,-93.97 252.75,-71.58 252.75,-53.46"/>
<polygon fill="black" stroke="black" stroke-width="1.5" points="256.25,-53.36 252.75,-43.36 249.25,-53.36 256.25,-53.36"/>
<text text-anchor="middle" x="281.25" y="-73.4" font-family="Arial" font-size="12.00"> &#160;approved</text>
</g>
<!-- lintr -->
<g id="node12" class="node">
<title>lintr</title>
<path fill="#f8f4e0" stroke="black" d="M441.25,-546C441.25,-546 318.25,-546 318.25,-546 312.25,-546 306.25,-540 306.25,-534 306.25,-534 306.25,-515 306.25,-515 306.25,-509 312.25,-503 318.25,-503 318.25,-503 441.25,-503 441.25,-503 447.25,-503 453.25,-509 453.25,-515 453.25,-515 453.25,-534 453.25,-534 453.25,-540 447.25,-546 441.25,-546"/>
<text text-anchor="middle" x="379.75" y="-520.8" font-family="Arial" font-size="14.00">Check code with lintr</text>
</g>
<!-- review&#45;&gt;lintr -->
<g id="edge15" class="edge">
<title>review&#45;&gt;lintr</title>
<path fill="none" stroke="black" stroke-width="1.5" stroke-dasharray="5,2" d="M290.4,-153.12C309.92,-166.06 331.89,-184.71 342.75,-208 350.83,-225.32 343.33,-231.9 342.75,-251 341.42,-295.06 343.92,-306.51 336.75,-350 332.63,-375 325.11,-379.89 321.75,-405 319.21,-423.94 315.6,-429.9 321.75,-448 327.65,-465.37 339.33,-481.86 350.68,-494.98"/>
<polygon fill="black" stroke="black" stroke-width="1.5" points="348.34,-497.62 357.64,-502.69 353.54,-492.92 348.34,-497.62"/>
<text text-anchor="middle" x="389.75" y="-324.9" font-family="Arial" font-size="12.00"> &#160;revisions needed</text>
</g>
<!-- renv&#45;&gt;develop -->
<g id="edge6" class="edge">
<title>renv&#45;&gt;develop</title>
<path fill="none" stroke="black" stroke-width="1.5" d="M241.75,-839.58C241.75,-826.54 241.75,-809.65 241.75,-795.2"/>
<polygon fill="black" stroke="black" stroke-width="1.5" points="245.25,-795.19 241.75,-785.19 238.25,-795.19 245.25,-795.19"/>
</g>
<!-- testthat -->
<g id="node14" class="node">
<title>testthat</title>
<path fill="#f3e0e0" stroke="black" d="M306.25,-350C306.25,-350 199.25,-350 199.25,-350 193.25,-350 187.25,-344 187.25,-338 187.25,-338 187.25,-318 187.25,-318 187.25,-312 193.25,-306 199.25,-306 199.25,-306 306.25,-306 306.25,-306 312.25,-306 318.25,-312 318.25,-318 318.25,-318 318.25,-338 318.25,-338 318.25,-344 312.25,-350 306.25,-350"/>
<text text-anchor="middle" x="252.75" y="-331.8" font-family="Arial" font-size="14.00">Create &amp; run tests</text>
<text text-anchor="middle" x="252.75" y="-316.8" font-family="Arial" font-size="14.00">with testthat</text>
</g>
<!-- targets&#45;&gt;testthat -->
<g id="edge12" class="edge">
<title>targets&#45;&gt;testthat</title>
<path fill="none" stroke="black" stroke-width="1.5" stroke-dasharray="5,2" d="M221.36,-572.89C222.75,-533.91 227.11,-448.12 239.75,-377 240.73,-371.47 242.05,-365.66 243.48,-360.06"/>
<polygon fill="black" stroke="black" stroke-width="1.5" points="246.88,-360.89 246.11,-350.32 240.12,-359.07 246.88,-360.89"/>
</g>
<!-- r_code&#45;&gt;lintr -->
<g id="edge9" class="edge">
<title>r_code&#45;&gt;lintr</title>
<path fill="none" stroke="black" stroke-width="1.5" d="M345.65,-643.99C352.36,-620.69 363.37,-582.43 371.06,-555.71"/>
<polygon fill="black" stroke="black" stroke-width="1.5" points="374.42,-556.67 373.82,-546.09 367.69,-554.74 374.42,-556.67"/>
</g>
<!-- styler -->
<g id="node13" class="node">
<title>styler</title>
<path fill="#f8f4e0" stroke="black" d="M490.25,-448C490.25,-448 351.25,-448 351.25,-448 345.25,-448 339.25,-442 339.25,-436 339.25,-436 339.25,-417 339.25,-417 339.25,-411 345.25,-405 351.25,-405 351.25,-405 490.25,-405 490.25,-405 496.25,-405 502.25,-411 502.25,-417 502.25,-417 502.25,-436 502.25,-436 502.25,-442 496.25,-448 490.25,-448"/>
<text text-anchor="middle" x="420.75" y="-422.8" font-family="Arial" font-size="14.00">Format code with styler</text>
</g>
<!-- lintr&#45;&gt;styler -->
<g id="edge10" class="edge">
<title>lintr&#45;&gt;styler</title>
<path fill="none" stroke="black" stroke-width="1.5" d="M388.65,-502.67C394.23,-489.59 401.54,-472.49 407.76,-457.9"/>
<polygon fill="black" stroke="black" stroke-width="1.5" points="411.16,-458.86 411.87,-448.29 404.72,-456.11 411.16,-458.86"/>
</g>
<!-- styler&#45;&gt;testthat -->
<g id="edge11" class="edge">
<title>styler&#45;&gt;testthat</title>
<path fill="none" stroke="black" stroke-width="1.5" d="M384.71,-404.8C359.42,-390.27 325.4,-370.73 298.24,-355.13"/>
<polygon fill="black" stroke="black" stroke-width="1.5" points="299.72,-351.95 289.31,-350 296.24,-358.02 299.72,-351.95"/>
</g>
<!-- testthat&#45;&gt;pr -->
<g id="edge13" class="edge">
<title>testthat&#45;&gt;pr</title>
<path fill="none" stroke="black" stroke-width="1.5" d="M252.75,-305.58C252.75,-292.54 252.75,-275.65 252.75,-261.2"/>
<polygon fill="black" stroke="black" stroke-width="1.5" points="256.25,-261.19 252.75,-251.19 249.25,-261.19 256.25,-261.19"/>
</g>
</g>
</svg>
