<?xml version="1.0" encoding="UTF-8" standalone="no"?>
<!DOCTYPE svg PUBLIC "-//W3C//DTD SVG 1.1//EN"
 "http://www.w3.org/Graphics/SVG/1.1/DTD/svg11.dtd">
<!-- Generated by graphviz version 2.43.0 (0)
 -->
<!-- Title: Setup_Workflow Pages: 1 -->
<svg width="1376pt" height="3000pt"
 viewBox="0.00 0.00 330.19 720.00" xmlns="http://www.w3.org/2000/svg" xmlns:xlink="http://www.w3.org/1999/xlink">
<g id="graph0" class="graph" transform="scale(3.71 3.71) rotate(0) translate(4 805)">
<title>Setup_Workflow</title>
<polygon fill="white" stroke="transparent" points="-4,4 -4,-805 367,-805 367,4 -4,4"/>
<text text-anchor="middle" x="181.5" y="-782.6" font-family="Arial" font-size="18.00">Phase 1: Issue Creation and Setup Process</text>
<!-- identify -->
<g id="node1" class="node">
<title>identify</title>
<path fill="#e0eef3" stroke="black" d="M249,-773C249,-773 114,-773 114,-773 108,-773 102,-767 102,-761 102,-761 102,-741 102,-741 102,-735 108,-729 114,-729 114,-729 249,-729 249,-729 255,-729 261,-735 261,-741 261,-741 261,-761 261,-761 261,-767 255,-773 249,-773"/>
<text text-anchor="middle" x="181.5" y="-754.8" font-family="Arial" font-size="14.00">RA identifies task</text>
<text text-anchor="middle" x="181.5" y="-739.8" font-family="Arial" font-size="14.00">that needs to be done</text>
</g>
<!-- create_issue -->
<g id="node2" class="node">
<title>create_issue</title>
<path fill="#f0f4f8" stroke="black" d="M245.5,-675C245.5,-675 117.5,-675 117.5,-675 111.5,-675 105.5,-669 105.5,-663 105.5,-663 105.5,-644 105.5,-644 105.5,-638 111.5,-632 117.5,-632 117.5,-632 245.5,-632 245.5,-632 251.5,-632 257.5,-638 257.5,-644 257.5,-644 257.5,-663 257.5,-663 257.5,-669 251.5,-675 245.5,-675"/>
<text text-anchor="middle" x="181.5" y="-649.8" font-family="Arial" font-size="14.00">Create GitHub Issue</text>
</g>
<!-- identify&#45;&gt;create_issue -->
<g id="edge1" class="edge">
<title>identify&#45;&gt;create_issue</title>
<path fill="none" stroke="black" stroke-width="1.5" d="M181.5,-728.88C181.5,-728.88 181.5,-685.2 181.5,-685.2"/>
<polygon fill="black" stroke="black" stroke-width="1.5" points="185,-685.2 181.5,-675.2 178,-685.2 185,-685.2"/>
</g>
<!-- add_labels -->
<g id="node3" class="node">
<title>add_labels</title>
<path fill="#f0f4f8" stroke="black" d="M283,-578C283,-578 80,-578 80,-578 74,-578 68,-572 68,-566 68,-566 68,-531 68,-531 68,-525 74,-519 80,-519 80,-519 283,-519 283,-519 289,-519 295,-525 295,-531 295,-531 295,-566 295,-566 295,-572 289,-578 283,-578"/>
<text text-anchor="middle" x="181.5" y="-559.8" font-family="Arial" font-size="14.00">Add detailed labels</text>
<text text-anchor="middle" x="181.5" y="-544.8" font-family="Arial" font-size="14.00">• Survey ID</text>
<text text-anchor="middle" x="181.5" y="-529.8" font-family="Arial" font-size="14.00">• Activity type (missing data, etc.)</text>
</g>
<!-- create_issue&#45;&gt;add_labels -->
<g id="edge2" class="edge">
<title>create_issue&#45;&gt;add_labels</title>
<path fill="none" stroke="black" stroke-width="1.5" d="M181.5,-632C181.5,-632 181.5,-588.33 181.5,-588.33"/>
<polygon fill="black" stroke="black" stroke-width="1.5" points="185,-588.33 181.5,-578.33 178,-588.33 185,-588.33"/>
</g>
<!-- assign_issue -->
<g id="node4" class="node">
<title>assign_issue</title>
<path fill="#f0f4f8" stroke="black" d="M263,-465C263,-465 100,-465 100,-465 94,-465 88,-459 88,-453 88,-453 88,-434 88,-434 88,-428 94,-422 100,-422 100,-422 263,-422 263,-422 269,-422 275,-428 275,-434 275,-434 275,-453 275,-453 275,-459 269,-465 263,-465"/>
<text text-anchor="middle" x="181.5" y="-439.8" font-family="Arial" font-size="14.00">Assign issue to contributor</text>
</g>
<!-- add_labels&#45;&gt;assign_issue -->
<g id="edge3" class="edge">
<title>add_labels&#45;&gt;assign_issue</title>
<path fill="none" stroke="black" stroke-width="1.5" d="M181.5,-518.97C181.5,-518.97 181.5,-475.15 181.5,-475.15"/>
<polygon fill="black" stroke="black" stroke-width="1.5" points="185,-475.15 181.5,-465.15 178,-475.15 185,-475.15"/>
</g>
<!-- fork -->
<g id="node5" class="node">
<title>fork</title>
<path fill="#e6e0f3" stroke="black" d="M247.5,-368C247.5,-368 115.5,-368 115.5,-368 109.5,-368 103.5,-362 103.5,-356 103.5,-356 103.5,-336 103.5,-336 103.5,-330 109.5,-324 115.5,-324 115.5,-324 247.5,-324 247.5,-324 253.5,-324 259.5,-330 259.5,-336 259.5,-336 259.5,-356 259.5,-356 259.5,-362 253.5,-368 247.5,-368"/>
<text text-anchor="middle" x="181.5" y="-349.8" font-family="Arial" font-size="14.00">New contributor forks</text>
<text text-anchor="middle" x="181.5" y="-334.8" font-family="Arial" font-size="14.00">the repository</text>
</g>
<!-- assign_issue&#45;&gt;fork -->
<g id="edge4" class="edge">
<title>assign_issue&#45;&gt;fork</title>
<path fill="none" stroke="black" stroke-width="1.5" d="M181.5,-421.86C181.5,-421.86 181.5,-378.25 181.5,-378.25"/>
<polygon fill="black" stroke="black" stroke-width="1.5" points="185,-378.25 181.5,-368.25 178,-378.25 185,-378.25"/>
</g>
<!-- clone -->
<g id="node6" class="node">
<title>clone</title>
<path fill="#e6e0f3" stroke="black" d="M225.5,-270C225.5,-270 137.5,-270 137.5,-270 131.5,-270 125.5,-264 125.5,-258 125.5,-258 125.5,-238 125.5,-238 125.5,-232 131.5,-226 137.5,-226 137.5,-226 225.5,-226 225.5,-226 231.5,-226 237.5,-232 237.5,-238 237.5,-238 237.5,-258 237.5,-258 237.5,-264 231.5,-270 225.5,-270"/>
<text text-anchor="middle" x="181.5" y="-251.8" font-family="Arial" font-size="14.00">Clone fork to</text>
<text text-anchor="middle" x="181.5" y="-236.8" font-family="Arial" font-size="14.00">local machine</text>
</g>
<!-- fork&#45;&gt;clone -->
<g id="edge5" class="edge">
<title>fork&#45;&gt;clone</title>
<path fill="none" stroke="black" stroke-width="1.5" d="M181.5,-323.76C181.5,-323.76 181.5,-280.15 181.5,-280.15"/>
<polygon fill="black" stroke="black" stroke-width="1.5" points="185,-280.15 181.5,-270.15 178,-280.15 185,-280.15"/>
</g>
<!-- setup -->
<g id="node8" class="node">
<title>setup</title>
<path fill="#e0eef3" stroke="black" d="M283,-172C283,-172 80,-172 80,-172 74,-172 68,-166 68,-160 68,-160 68,-110 68,-110 68,-104 74,-98 80,-98 80,-98 283,-98 283,-98 289,-98 295,-104 295,-110 295,-110 295,-160 295,-160 295,-166 289,-172 283,-172"/>
<text text-anchor="middle" x="181.5" y="-153.8" font-family="Arial" font-size="14.00">Install required software</text>
<text text-anchor="middle" x="181.5" y="-138.8" font-family="Arial" font-size="14.00">• R and RStudio</text>
<text text-anchor="middle" x="181.5" y="-123.8" font-family="Arial" font-size="14.00">• Git</text>
<text text-anchor="middle" x="181.5" y="-108.8" font-family="Arial" font-size="14.00">• Required system dependencies</text>
</g>
<!-- clone&#45;&gt;setup -->
<g id="edge6" class="edge">
<title>clone&#45;&gt;setup</title>
<path fill="none" stroke="black" stroke-width="1.5" d="M181.5,-225.94C181.5,-225.94 181.5,-182.13 181.5,-182.13"/>
<polygon fill="black" stroke="black" stroke-width="1.5" points="185,-182.13 181.5,-172.13 178,-182.13 185,-182.13"/>
</g>
<!-- branch -->
<g id="node7" class="node">
<title>branch</title>
<path fill="#e6e0f3" stroke="black" d="M249.5,-44C249.5,-44 113.5,-44 113.5,-44 107.5,-44 101.5,-38 101.5,-32 101.5,-32 101.5,-12 101.5,-12 101.5,-6 107.5,0 113.5,0 113.5,0 249.5,0 249.5,0 255.5,0 261.5,-6 261.5,-12 261.5,-12 261.5,-32 261.5,-32 261.5,-38 255.5,-44 249.5,-44"/>
<text text-anchor="middle" x="181.5" y="-25.8" font-family="Arial" font-size="14.00">Create feature branch</text>
<text text-anchor="middle" x="181.5" y="-10.8" font-family="Arial" font-size="14.00">named after issue</text>
</g>
<!-- setup&#45;&gt;branch -->
<g id="edge7" class="edge">
<title>setup&#45;&gt;branch</title>
<path fill="none" stroke="black" stroke-width="1.5" d="M181.5,-98C181.5,-98 181.5,-54.23 181.5,-54.23"/>
<polygon fill="black" stroke="black" stroke-width="1.5" points="185,-54.23 181.5,-44.23 178,-54.23 185,-54.23"/>
</g>
</g>
</svg>
